<svg width="104" height="104" viewBox="0 0 104 104" fill="none" xmlns="http://www.w3.org/2000/svg">
<path d="M76.0663 34.9276C76.6642 35.5224 77 36.3286 77 37.1691C77 38.0097 76.6642 38.8159 76.0663 39.4106L45.2039 70.0724C44.6053 70.6664 43.7938 71 42.9478 71C42.1017 71 41.2903 70.6664 40.6916 70.0724L26.8568 56.3274C26.2931 55.7258 25.9862 54.9305 26.0005 54.1087C26.0148 53.2869 26.3492 52.5026 26.9334 51.9206C27.5192 51.3402 28.3086 51.0079 29.1358 50.9937C29.963 50.9795 30.7635 51.2845 31.3691 51.8445L42.9478 63.3479L71.554 34.9276C72.1526 34.3336 72.9641 34 73.8102 34C74.6562 34 75.4677 34.3336 76.0663 34.9276Z" fill="#00E609"/>
<circle cx="51.5" cy="52.5" r="44.5" stroke="#55FF1A" stroke-width="4"/>
</svg>

