<svg width="104" height="104" viewBox="0 0 104 104" fill="none" xmlns="http://www.w3.org/2000/svg">
<path d="M100.286 78.0001V92.8572C100.286 94.8274 99.5031 96.7169 98.1099 98.11C96.7168 99.5031 94.8273 100.286 92.8571 100.286H78M78 3.71436H92.8571C94.8273 3.71436 96.7168 4.49701 98.1099 5.89013C99.5031 7.28326 100.286 9.17275 100.286 11.1429V26.0001M3.71429 26.0001V11.1429C3.71429 9.17275 4.49695 7.28326 5.89007 5.89013C7.2832 4.49701 9.17269 3.71436 11.1429 3.71436H26M26 100.286H11.1429C9.17269 100.286 7.2832 99.5031 5.89007 98.11C4.49695 96.7169 3.71429 94.8274 3.71429 92.8572V78.0001M29.7143 26.0001V40.8572M74.2857 26.0001V40.8572M52 33.4286V59.4286H40.8572M33.4286 74.2858C38.44 79.0461 45.0881 81.7002 52 81.7002C58.9119 81.7002 65.56 79.0461 70.5714 74.2858" stroke="white" stroke-width="4" stroke-linecap="round" stroke-linejoin="round"/>
</svg>
